<svg width="3206" height="1133" viewBox="0 0 3206 1133" fill="none" xmlns="http://www.w3.org/2000/svg">
<path d="M1877 1133H3206V893C2795.7 908.375 2337.13 1035.79 1877 1133Z" fill="#793282"/>
<path d="M1877 1133H3206V893C2795.7 908.375 2337.13 1035.79 1877 1133Z" fill="white" fill-opacity="0.1"/>
<path d="M3206 658.235C2331.47 722.516 1219.95 1312.54 373.52 843.13C224.236 760.342 98.4242 627.235 0 462V916.72C48.0857 962.031 99.4501 1001.36 153.905 1033.72C220 1072.99 287.89 1105.83 357.332 1133H1876.84C2337.03 1037.17 2795.65 911.562 3206 896.404V658.235Z" fill="#793282"/>
<path d="M3206 658.235C2331.47 722.516 1219.95 1312.54 373.52 843.13C224.236 760.342 98.4242 627.235 0 462V916.72C48.0857 962.031 99.4501 1001.36 153.905 1033.72C220 1072.99 287.89 1105.83 357.332 1133H1876.84C2337.03 1037.17 2795.65 911.562 3206 896.404V658.235Z" fill="white" fill-opacity="0.2"/>
<path fill-rule="evenodd" clip-rule="evenodd" d="M0 1V462.031C98.4242 627.534 224.236 760.858 373.52 843.782C949.196 1163.56 1647.5 992.478 2310.47 830.05C2622.27 753.658 2926.26 679.181 3206 658.585V422.754C2961.98 451.128 2697.87 522.362 2425.8 595.74C1808.58 762.209 1150.43 939.717 593.136 652.883C358.903 532.326 183.34 292.209 78.5899 1H0Z" fill="#793282"/>
<path fill-rule="evenodd" clip-rule="evenodd" d="M0 1V462.031C98.4242 627.534 224.236 760.858 373.52 843.782C949.196 1163.56 1647.5 992.478 2310.47 830.05C2622.27 753.658 2926.26 679.181 3206 658.585V422.754C2961.98 451.128 2697.87 522.362 2425.8 595.74C1808.58 762.209 1150.43 939.717 593.136 652.883C358.903 532.326 183.34 292.209 78.5899 1H0Z" fill="white" fill-opacity="0.3"/>
<path fill-rule="evenodd" clip-rule="evenodd" d="M78.5527 0C183.299 292.008 358.875 532.789 593.136 653.667C1150.43 941.241 1808.58 763.275 2425.8 596.377C2697.87 522.809 2961.98 451.392 3206 422.945V189.85C2998.25 224.496 2774.48 291.564 2543.05 360.926C1970.95 532.392 1352.07 717.881 812.751 462.281C622.713 372.218 471.921 206.22 365.136 0H78.5527Z" fill="#793282"/>
<path fill-rule="evenodd" clip-rule="evenodd" d="M78.5527 0C183.299 292.008 358.875 532.789 593.136 653.667C1150.43 941.241 1808.58 763.275 2425.8 596.377C2697.87 522.809 2961.98 451.392 3206 422.945V189.85C2998.25 224.496 2774.48 291.564 2543.05 360.926C1970.95 532.392 1352.07 717.881 812.751 462.281C622.713 372.218 471.921 206.22 365.136 0H78.5527Z" fill="white" fill-opacity="0.4"/>
</svg>
