<svg width="2370" height="687" viewBox="0 0 2370 687" fill="none" xmlns="http://www.w3.org/2000/svg">
<path d="M925.371 673.656C1487.64 740.046 1981.41 546.116 2370 369.985V247.341C2065.9 404.206 1680.12 547.077 1220.34 509.615C719.527 468.808 445.297 234.893 322.366 0H0C81.8332 290.039 362.631 607.212 925.371 673.656Z" fill="#793282"/>
<path d="M925.371 673.656C1487.64 740.046 1981.41 546.116 2370 369.985V247.341C2065.9 404.206 1680.12 547.077 1220.34 509.615C719.527 468.808 445.297 234.893 322.366 0H0C81.8332 290.039 362.631 607.212 925.371 673.656Z" fill="white" fill-opacity="0.6"/>
<path d="M1220.7 510.005C1680.33 547.202 2066 405.343 2370 249.589V152.665C2143.88 271.217 1860.56 361.615 1515.58 347.121C1091.88 329.324 832.72 176.863 682.558 4H323C445.893 237.23 720.038 469.487 1220.7 510.005Z" fill="#793282"/>
<path d="M1220.7 510.005C1680.33 547.202 2066 405.343 2370 249.589V152.665C2143.88 271.217 1860.56 361.615 1515.58 347.121C1091.88 329.324 832.72 176.863 682.558 4H323C445.893 237.23 720.038 469.487 1220.7 510.005Z" fill="white" fill-opacity="0.7"/>
<path d="M1514.79 349.461C1860.09 364.054 2143.67 273.041 2370 153.681V72.4736C2216.22 140.362 2030.93 185.469 1809.95 185.469C1488.73 185.469 1263.3 108.351 1105.26 4H681C831.301 178.045 1090.7 331.543 1514.79 349.461Z" fill="#793282"/>
<path d="M1514.79 349.461C1860.09 364.054 2143.67 273.041 2370 153.681V72.4736C2216.22 140.362 2030.93 185.469 1809.95 185.469C1488.73 185.469 1263.3 108.351 1105.26 4H681C831.301 178.045 1090.7 331.543 1514.79 349.461Z" fill="white" fill-opacity="0.8"/>
<path d="M1810.28 188C2031.13 188 2216.32 142.508 2370 74.0515V5H1106C1263.95 110.227 1489.24 188 1810.28 188Z" fill="#793282"/>
<path d="M1810.28 188C2031.13 188 2216.32 142.508 2370 74.0515V5H1106C1263.95 110.227 1489.24 188 1810.28 188Z" fill="white" fill-opacity="0.9"/>
</svg>
