<svg width="703" height="400" viewBox="0 0 703 400" fill="none" xmlns="http://www.w3.org/2000/svg">
<g clip-path="url(#clip0_349_1951)">
<rect x="299" y="193" width="419" height="218" fill="#E786B5"/>
<rect x="299" y="193" width="419" height="218" fill="white" fill-opacity="0.4"/>
<path d="M-20.036 599.846C160.756 435.113 356.33 256.909 594.59 226.324C688.675 214.246 780.286 240.45 858.804 291.243L738.658 348.675C678.527 325.256 612.957 316.293 545.601 327.091C318.65 363.476 138.487 536.76 -25.2153 694.214C-84.0841 750.836 -140.827 805.412 -196.852 850.838L-234.029 782.485C-163.887 730.92 -93.1696 666.485 -20.036 599.846Z" fill="#E786B5"/>
<path d="M-20.036 599.846C160.756 435.113 356.33 256.909 594.59 226.324C688.675 214.246 780.286 240.45 858.804 291.243L738.658 348.675C678.527 325.256 612.957 316.293 545.601 327.091C318.65 363.476 138.487 536.76 -25.2153 694.214C-84.0841 750.836 -140.827 805.412 -196.852 850.838L-234.029 782.485C-163.887 730.92 -93.1696 666.485 -20.036 599.846Z" fill="white" fill-opacity="0.5"/>
<path d="M-15.5457 506.215C182.445 333.897 393.565 150.151 643.58 125.557C759.781 114.126 873.641 160.744 964.086 240.916L858.801 291.245C780.283 240.452 688.673 214.248 594.587 226.326C356.327 256.911 160.751 435.116 -20.0382 599.848C-93.1719 666.487 -163.886 730.92 -234.028 782.485L-271.919 712.815C-187.541 655.908 -102.82 582.172 -15.5457 506.215Z" fill="#E786B5"/>
<path d="M-15.5457 506.215C182.445 333.897 393.565 150.151 643.58 125.557C759.781 114.126 873.641 160.744 964.086 240.916L858.801 291.245C780.283 240.452 688.673 214.248 594.587 226.326C356.327 256.911 160.751 435.116 -20.0382 599.848C-93.1719 666.487 -163.886 730.92 -234.028 782.485L-271.919 712.815C-187.541 655.908 -102.82 582.172 -15.5457 506.215Z" fill="white" fill-opacity="0.6"/>
<path d="M-11.67 413.124C203.666 232.941 430.482 43.154 692.568 24.7884C760.531 20.0251 828.147 35.0217 891.02 65.093L981.987 232.359L964.086 240.916C873.641 160.745 759.782 114.127 643.579 125.557C393.568 150.149 182.445 333.896 -15.5461 506.215C-102.82 582.172 -187.541 655.908 -271.92 712.815L-310.354 642.144C-211.682 580.483 -112.945 497.866 -11.67 413.124Z" fill="#E786B5"/>
<path d="M-11.67 413.124C203.666 232.941 430.482 43.154 692.568 24.7884C760.531 20.0251 828.147 35.0217 891.02 65.093L981.987 232.359L964.086 240.916C873.641 160.745 759.782 114.127 643.579 125.557C393.568 150.149 182.445 333.896 -15.5461 506.215C-102.82 582.172 -187.541 655.908 -271.92 712.815L-310.354 642.144C-211.682 580.483 -112.945 497.866 -11.67 413.124Z" fill="white" fill-opacity="0.7"/>
</g>
<defs>
<clipPath id="clip0_349_1951">
<rect width="703" height="400" fill="white"/>
</clipPath>
</defs>
</svg>
